<svg width="3064" height="829" viewBox="0 0 3064 829" fill="none" xmlns="http://www.w3.org/2000/svg">
<g clip-path="url(#clip0_30_13)">
<rect x="7.24461" y="0.627678" width="633.421" height="341.543" rx="20" transform="matrix(0.783714 -0.621122 0.665209 0.746658 99.4096 417.407)" fill="#608BC1" stroke="#EDEDED" stroke-width="10"/>
<rect x="90.8914" y="422.206" width="714.454" height="454.662" rx="45" transform="rotate(-28.38 90.8914 422.206)" fill="#125DBB" stroke="#EDEDED" stroke-width="10"/>
<path d="M353.122 763.303L870.648 482.694" stroke="#DFC4C4" stroke-opacity="0.9" stroke-width="10" stroke-linecap="round" stroke-dasharray="20 20"/>
<path d="M167.708 422.575L685.641 142.763" stroke="#E0C8C8" stroke-width="10" stroke-linecap="round" stroke-dasharray="20 20"/>
<path d="M705.52 177.073L851.91 448.042" stroke="#DFC4C4" stroke-opacity="0.9" stroke-width="10" stroke-linecap="round" stroke-dasharray="20 20"/>
<path d="M728.31 402.936C682.101 405.159 657.326 364.592 681.065 317.219C682.351 314.654 684.463 312.596 686.987 311.232L827.674 235.226C834.963 231.288 844.064 234.005 848.001 241.293L882.042 304.303C885.98 311.592 883.263 320.692 875.975 324.63L734.149 401.251C732.35 402.223 730.354 402.838 728.31 402.936Z" fill="#608BC1" stroke="#EDEDED" stroke-width="10"/>
<path d="M756.229 332.874C761.111 341.911 756.311 356.037 742.227 363.646C728.143 371.255 713.696 367.526 708.814 358.49C703.932 349.453 708.732 335.326 722.817 327.717C736.901 320.108 751.347 323.837 756.229 332.874Z" fill="#EDEDED" stroke="#EDEDED" stroke-width="10"/>
<path d="M137.108 400.92L204.127 363.634L259.487 462.159L205.648 443.359L192.468 499.445L137.108 400.92Z" fill="url(#paint0_linear_30_13)"/>
<path d="M1103.04 561.6C1079.36 561.6 1057.71 555.733 1038.08 544C1018.67 532.053 1003.09 516.053 991.36 496C979.84 475.947 974.08 453.867 974.08 429.76C974.08 405.44 979.84 383.36 991.36 363.52C1003.09 343.467 1018.67 327.467 1038.08 315.52C1057.71 303.573 1079.36 297.6 1103.04 297.6C1125.87 297.813 1147.31 303.68 1167.36 315.2L1142.72 356.8C1130.35 349.76 1117.12 346.133 1103.04 345.92C1080.85 345.92 1061.87 354.133 1046.08 370.56C1030.29 386.987 1022.4 406.72 1022.4 429.76C1022.4 452.8 1030.29 472.533 1046.08 488.96C1061.87 505.173 1080.85 513.28 1103.04 513.28C1117.33 513.28 1130.67 509.547 1143.04 502.08C1155.63 494.613 1165.55 484.373 1172.8 471.36L1215.04 495.04C1203.31 515.733 1187.41 532.053 1167.36 544C1147.52 555.733 1126.08 561.6 1103.04 561.6ZM1275.72 528.96H1225.48L1229.32 297.28L1275.72 295.36V528.96ZM1495.32 528.96H1460.76L1454.04 509.44C1436.76 522.24 1417.34 528.747 1395.8 528.96C1368.28 528.96 1344.81 519.04 1325.4 499.2C1305.98 479.147 1296.28 455.147 1296.28 427.2C1296.28 399.253 1305.98 375.36 1325.4 355.52C1344.81 335.68 1368.28 325.76 1395.8 325.76C1416.92 325.76 1436.12 331.947 1453.4 344.32L1460.76 325.76H1495.32V528.96ZM1395.8 480.64C1409.88 480.64 1421.93 475.413 1431.96 464.96C1441.98 454.507 1447 441.92 1447 427.2C1447 412.48 1441.98 400 1431.96 389.76C1421.93 379.307 1409.88 374.08 1395.8 374.08C1381.72 374.08 1369.66 379.307 1359.64 389.76C1349.61 400 1344.6 412.48 1344.6 427.2C1344.6 441.92 1349.61 454.507 1359.64 464.96C1369.66 475.413 1381.72 480.64 1395.8 480.64ZM1589.57 535.04H1584.45C1570.8 535.04 1557.89 532.16 1545.73 526.4C1533.78 520.64 1523.76 512.64 1515.65 502.4V502.08L1554.69 472.32V472.64C1561.94 481.6 1571.97 486.08 1584.77 486.08H1586.69C1599.49 485.013 1607.28 480.96 1610.05 473.92C1610.69 472.427 1611.01 470.613 1611.01 468.48C1610.8 466.347 1609.73 464.32 1607.81 462.4C1604.18 458.347 1595.54 453.973 1581.89 449.28L1568.45 443.52C1557.78 439.04 1547.86 433.173 1538.69 425.92C1524.82 413.547 1517.89 399.787 1517.89 384.64C1517.89 378.453 1519.06 372.053 1521.41 365.44C1526.32 352.853 1535.28 342.613 1548.29 334.72C1560.66 327.68 1573.25 324.16 1586.05 324.16C1611.01 324.16 1632.66 333.547 1651.01 352.32H1651.33L1615.49 385.92C1606.96 377.387 1597.04 373.12 1585.73 373.12C1581.25 373.547 1577.09 374.933 1573.25 377.28C1569.41 379.627 1567.49 381.76 1567.49 383.68C1567.49 385.387 1568.45 386.88 1570.37 388.16C1580.4 395.627 1591.38 401.28 1603.33 405.12C1607.81 406.827 1612.18 408.64 1616.45 410.56C1626.69 414.827 1635.76 420.8 1643.65 428.48C1654.53 440.64 1659.97 454.4 1659.97 469.76C1659.97 482.56 1655.92 494.72 1647.81 506.24C1634.8 523.52 1615.38 533.12 1589.57 535.04ZM1746.76 535.04H1741.64C1727.98 535.04 1715.08 532.16 1702.92 526.4C1690.97 520.64 1680.94 512.64 1672.84 502.4V502.08L1711.88 472.32V472.64C1719.13 481.6 1729.16 486.08 1741.96 486.08H1743.88C1756.68 485.013 1764.46 480.96 1767.24 473.92C1767.88 472.427 1768.2 470.613 1768.2 468.48C1767.98 466.347 1766.92 464.32 1765 462.4C1761.37 458.347 1752.73 453.973 1739.08 449.28L1725.64 443.52C1714.97 439.04 1705.05 433.173 1695.88 425.92C1682.01 413.547 1675.08 399.787 1675.08 384.64C1675.08 378.453 1676.25 372.053 1678.6 365.44C1683.5 352.853 1692.46 342.613 1705.48 334.72C1717.85 327.68 1730.44 324.16 1743.24 324.16C1768.2 324.16 1789.85 333.547 1808.2 352.32H1808.52L1772.68 385.92C1764.14 377.387 1754.22 373.12 1742.92 373.12C1738.44 373.547 1734.28 374.933 1730.44 377.28C1726.6 379.627 1724.68 381.76 1724.68 383.68C1724.68 385.387 1725.64 386.88 1727.56 388.16C1737.58 395.627 1748.57 401.28 1760.52 405.12C1765 406.827 1769.37 408.64 1773.64 410.56C1783.88 414.827 1792.94 420.8 1800.84 428.48C1811.72 440.64 1817.16 454.4 1817.16 469.76C1817.16 482.56 1813.1 494.72 1805 506.24C1791.98 523.52 1772.57 533.12 1746.76 535.04ZM2069.92 561.6C2046.24 561.6 2024.58 555.733 2004.96 544C1985.54 532.053 1969.97 516.053 1958.24 496C1946.72 475.947 1940.96 453.867 1940.96 429.76C1940.96 405.44 1946.72 383.36 1958.24 363.52C1969.97 343.467 1985.54 327.467 2004.96 315.52C2024.58 303.573 2046.24 297.6 2069.92 297.6C2092.74 297.813 2114.18 303.68 2134.24 315.2L2109.6 356.8C2097.22 349.76 2084 346.133 2069.92 345.92C2047.73 345.92 2028.74 354.133 2012.96 370.56C1997.17 386.987 1989.28 406.72 1989.28 429.76C1989.28 452.8 1997.17 472.533 2012.96 488.96C2028.74 505.173 2047.73 513.28 2069.92 513.28C2084.21 513.28 2097.54 509.547 2109.92 502.08C2122.5 494.613 2132.42 484.373 2139.68 471.36L2181.92 495.04C2170.18 515.733 2154.29 532.053 2134.24 544C2114.4 555.733 2092.96 561.6 2069.92 561.6ZM2382.19 528.96H2347.63L2340.91 509.44C2323.63 522.24 2304.22 528.747 2282.67 528.96C2255.15 528.96 2231.68 519.04 2212.27 499.2C2192.86 479.147 2183.15 455.147 2183.15 427.2C2183.15 399.253 2192.86 375.36 2212.27 355.52C2231.68 335.68 2255.15 325.76 2282.67 325.76C2303.79 325.76 2322.99 331.947 2340.27 344.32L2347.63 325.76H2382.19V528.96ZM2282.67 480.64C2296.75 480.64 2308.8 475.413 2318.83 464.96C2328.86 454.507 2333.87 441.92 2333.87 427.2C2333.87 412.48 2328.86 400 2318.83 389.76C2308.8 379.307 2296.75 374.08 2282.67 374.08C2268.59 374.08 2256.54 379.307 2246.51 389.76C2236.48 400 2231.47 412.48 2231.47 427.2C2231.47 441.92 2236.48 454.507 2246.51 464.96C2256.54 475.413 2268.59 480.64 2282.67 480.64ZM2501.09 528C2473.78 528 2450.53 518.187 2431.33 498.56C2412.13 478.72 2402.53 454.933 2402.53 427.2C2402.53 399.467 2412.13 375.787 2431.33 356.16C2450.53 336.533 2473.78 326.72 2501.09 326.72C2528.61 326.72 2552.82 337.493 2573.73 359.04L2539.17 390.08C2528.29 378.773 2515.59 373.12 2501.09 373.12C2486.58 373.12 2474.21 378.453 2463.97 389.12C2453.94 399.573 2448.93 412.267 2448.93 427.2C2448.93 442.133 2453.94 454.933 2463.97 465.6C2474.21 476.053 2486.58 481.28 2501.09 481.28C2510.69 481.28 2519.54 478.827 2527.65 473.92C2535.97 468.8 2542.47 461.76 2547.17 452.8L2588.45 473.92C2579.7 490.773 2567.54 504 2551.97 513.6C2536.39 523.2 2519.43 528 2501.09 528ZM2723.93 530.56V414.72C2723.93 404.267 2722.12 395.307 2718.49 387.84C2714.87 380.16 2707.83 376.32 2697.37 376.32C2686.49 376.32 2677.11 380.16 2669.21 387.84C2661.53 395.307 2656.52 404.48 2654.17 415.36L2655.13 527.68L2604.89 526.4V295.36H2653.21L2653.85 352C2664.95 337.28 2681.05 329.92 2702.17 329.92C2723.51 329.92 2740.36 337.387 2752.73 352.32C2765.11 367.253 2771.4 385.707 2771.61 407.68V529.28L2723.93 530.56ZM2887.96 528C2860.65 528 2837.4 518.187 2818.2 498.56C2799 478.72 2789.4 454.933 2789.4 427.2C2789.4 399.467 2799 375.787 2818.2 356.16C2837.4 336.533 2860.65 326.72 2887.96 326.72C2911 326.933 2931.48 334.293 2949.4 348.8C2966.89 363.307 2978.31 381.547 2983.64 403.52C2985.77 411.413 2986.84 419.307 2986.84 427.2L2844.44 457.28C2855.32 473.28 2869.83 481.28 2887.96 481.28C2897.56 481.28 2906.41 478.827 2914.52 473.92C2922.84 468.8 2929.35 461.76 2934.04 452.8L2975.32 473.92C2966.57 490.773 2954.41 504 2938.84 513.6C2923.27 523.2 2906.31 528 2887.96 528ZM2837.4 415.36L2930.2 395.84C2925.29 388.8 2919 383.253 2911.32 379.2C2903.64 375.147 2895.85 373.12 2887.96 373.12C2876.23 373.12 2865.35 377.173 2855.32 385.28C2845.51 393.173 2839.53 403.2 2837.4 415.36Z" fill="#0D59B8"/>
</g>
<defs>
<linearGradient id="paint0_linear_30_13" x1="140.286" y1="409.551" x2="273.371" y2="402.449" gradientUnits="userSpaceOnUse">
<stop offset="0.195" stop-color="#A00303"/>
<stop offset="1" stop-color="#3A0101"/>
</linearGradient>
<clipPath id="clip0_30_13">
<rect width="3064" height="829" fill="white"/>
</clipPath>
</defs>
</svg>
