<svg width="4869" height="1510" viewBox="0 0 4869 1510" fill="none" xmlns="http://www.w3.org/2000/svg">
<g clip-path="url(#clip0_30_13)">
<rect x="7.18207" y="0.629628" width="1144.14" height="647.559" rx="20" transform="matrix(0.778726 -0.627364 0.657689 0.75329 112.977 735.267)" fill="#009990" stroke="#EDEDED" stroke-width="10"/>
<rect x="93.2351" y="745.933" width="1287.62" height="861.166" rx="45" transform="rotate(-28.38 93.2351 745.933)" fill="#125DBB" stroke="#EDEDED" stroke-width="10"/>
<path d="M585.386 1390.13L1512.33 887.445" stroke="#DFC4C4" stroke-opacity="0.9" stroke-width="10" stroke-linecap="round" stroke-dasharray="20 20"/>
<path d="M237.853 751.273L1165.56 250.083" stroke="#E0C8C8" stroke-width="10" stroke-linecap="round" stroke-dasharray="20 20"/>
<path d="M1202.74 314.455L1477.2 822.477" stroke="#DFC4C4" stroke-opacity="0.9" stroke-width="10" stroke-linecap="round" stroke-dasharray="20 20"/>
<path d="M1254.26 734.349C1168.22 738.424 1120.58 659.819 1164.87 570.638C1166.19 567.972 1168.36 565.783 1170.98 564.368L1436.32 421.017C1443.61 417.079 1452.71 419.795 1456.65 427.084L1532.95 568.308C1536.89 575.596 1534.17 584.697 1526.88 588.635L1260.36 732.619C1258.49 733.632 1256.39 734.248 1254.26 734.349Z" fill="#009990" stroke="#EDEDED" stroke-width="10"/>
<path d="M1303.46 603.505C1314.27 623.513 1303.95 651.721 1277.79 665.855C1251.63 679.989 1222.38 673.155 1211.57 653.148C1200.76 633.14 1211.08 604.932 1237.24 590.798C1263.4 576.664 1292.65 583.498 1303.46 603.505Z" fill="#EDEDED" stroke="#EDEDED" stroke-width="10"/>
<path d="M181.706 710.014L301.71 643.158L405.362 827.95L307.253 791.175L285.358 894.806L181.706 710.014Z" fill="url(#paint0_linear_30_13)"/>
<path d="M1945.84 797.6C1892.56 797.6 1843.84 784.4 1799.68 758C1756 731.12 1720.96 695.12 1694.56 650C1668.64 604.88 1655.68 555.2 1655.68 500.96C1655.68 446.24 1668.64 396.56 1694.56 351.92C1720.96 306.8 1756 270.8 1799.68 243.92C1843.84 217.04 1892.56 203.6 1945.84 203.6C1997.2 204.08 2045.44 217.28 2090.56 243.2L2035.12 336.8C2007.28 320.96 1977.52 312.8 1945.84 312.32C1895.92 312.32 1853.2 330.8 1817.68 367.76C1782.16 404.72 1764.4 449.12 1764.4 500.96C1764.4 552.8 1782.16 597.2 1817.68 634.16C1853.2 670.64 1895.92 688.88 1945.84 688.88C1978 688.88 2008 680.48 2035.84 663.68C2064.16 646.88 2086.48 623.84 2102.8 594.56L2197.84 647.84C2171.44 694.4 2135.68 731.12 2090.56 758C2045.92 784.4 1997.68 797.6 1945.84 797.6ZM2334.37 724.16H2221.33L2229.97 202.88L2334.37 198.56V724.16ZM2828.46 724.16H2750.7L2735.58 680.24C2696.7 709.04 2653.02 723.68 2604.54 724.16C2542.62 724.16 2489.82 701.84 2446.14 657.2C2402.46 612.08 2380.62 558.08 2380.62 495.2C2380.62 432.32 2402.46 378.56 2446.14 333.92C2489.82 289.28 2542.62 266.96 2604.54 266.96C2652.06 266.96 2695.26 280.88 2734.14 308.72L2750.7 266.96H2828.46V724.16ZM2604.54 615.44C2636.22 615.44 2663.34 603.68 2685.9 580.16C2708.46 556.64 2719.74 528.32 2719.74 495.2C2719.74 462.08 2708.46 434 2685.9 410.96C2663.34 387.44 2636.22 375.68 2604.54 375.68C2572.86 375.68 2545.74 387.44 2523.18 410.96C2500.62 434 2489.34 462.08 2489.34 495.2C2489.34 528.32 2500.62 556.64 2523.18 580.16C2545.74 603.68 2572.86 615.44 2604.54 615.44ZM3040.53 737.84H3029.01C2998.29 737.84 2969.25 731.36 2941.89 718.4C2915.01 705.44 2892.45 687.44 2874.21 664.4V663.68L2962.05 596.72V597.44C2978.37 617.6 3000.93 627.68 3029.73 627.68H3034.05C3062.85 625.28 3080.37 616.16 3086.61 600.32C3088.05 596.96 3088.77 592.88 3088.77 588.08C3088.29 583.28 3085.89 578.72 3081.57 574.4C3073.41 565.28 3053.97 555.44 3023.25 544.88L2993.01 531.92C2969.01 521.84 2946.69 508.64 2926.05 492.32C2894.85 464.48 2879.25 433.52 2879.25 399.44C2879.25 385.52 2881.89 371.12 2887.17 356.24C2898.21 327.92 2918.37 304.88 2947.65 287.12C2975.49 271.28 3003.81 263.36 3032.61 263.36C3088.77 263.36 3137.49 284.48 3178.77 326.72H3179.49L3098.85 402.32C3079.65 383.12 3057.33 373.52 3031.89 373.52C3021.81 374.48 3012.45 377.6 3003.81 382.88C2995.17 388.16 2990.85 392.96 2990.85 397.28C2990.85 401.12 2993.01 404.48 2997.33 407.36C3019.89 424.16 3044.61 436.88 3071.49 445.52C3081.57 449.36 3091.41 453.44 3101.01 457.76C3124.05 467.36 3144.45 480.8 3162.21 498.08C3186.69 525.44 3198.93 556.4 3198.93 590.96C3198.93 619.76 3189.81 647.12 3171.57 673.04C3142.29 711.92 3098.61 733.52 3040.53 737.84ZM3394.2 737.84H3382.68C3351.96 737.84 3322.92 731.36 3295.56 718.4C3268.68 705.44 3246.12 687.44 3227.88 664.4V663.68L3315.72 596.72V597.44C3332.04 617.6 3354.6 627.68 3383.4 627.68H3387.72C3416.52 625.28 3434.04 616.16 3440.28 600.32C3441.72 596.96 3442.44 592.88 3442.44 588.08C3441.96 583.28 3439.56 578.72 3435.24 574.4C3427.08 565.28 3407.64 555.44 3376.92 544.88L3346.68 531.92C3322.68 521.84 3300.36 508.64 3279.72 492.32C3248.52 464.48 3232.92 433.52 3232.92 399.44C3232.92 385.52 3235.56 371.12 3240.84 356.24C3251.88 327.92 3272.04 304.88 3301.32 287.12C3329.16 271.28 3357.48 263.36 3386.28 263.36C3442.44 263.36 3491.16 284.48 3532.44 326.72H3533.16L3452.52 402.32C3433.32 383.12 3411 373.52 3385.56 373.52C3375.48 374.48 3366.12 377.6 3357.48 382.88C3348.84 388.16 3344.52 392.96 3344.52 397.28C3344.52 401.12 3346.68 404.48 3351 407.36C3373.56 424.16 3398.28 436.88 3425.16 445.52C3435.24 449.36 3445.08 453.44 3454.68 457.76C3477.72 467.36 3498.12 480.8 3515.88 498.08C3540.36 525.44 3552.6 556.4 3552.6 590.96C3552.6 619.76 3543.48 647.12 3525.24 673.04C3495.96 711.92 3452.28 733.52 3394.2 737.84Z" fill="#009990"/>
<path d="M2221.16 1450.9C2163.44 1450.9 2110.66 1436.6 2062.82 1408C2015.5 1378.88 1977.54 1339.88 1948.94 1291C1920.86 1242.12 1906.82 1188.3 1906.82 1129.54C1906.82 1070.26 1920.86 1016.44 1948.94 968.08C1977.54 919.2 2015.5 880.2 2062.82 851.08C2110.66 821.96 2163.44 807.4 2221.16 807.4C2276.8 807.92 2329.06 822.22 2377.94 850.3L2317.88 951.7C2287.72 934.54 2255.48 925.7 2221.16 925.18C2167.08 925.18 2120.8 945.2 2082.32 985.24C2043.84 1025.28 2024.6 1073.38 2024.6 1129.54C2024.6 1185.7 2043.84 1233.8 2082.32 1273.84C2120.8 1313.36 2167.08 1333.12 2221.16 1333.12C2256 1333.12 2288.5 1324.02 2318.66 1305.82C2349.34 1287.62 2373.52 1262.66 2391.2 1230.94L2494.16 1288.66C2465.56 1339.1 2426.82 1378.88 2377.94 1408C2329.58 1436.6 2277.32 1450.9 2221.16 1450.9ZM2982.33 1371.34H2898.09L2881.71 1323.76C2839.59 1354.96 2792.27 1370.82 2739.75 1371.34C2672.67 1371.34 2615.47 1347.16 2568.15 1298.8C2520.83 1249.92 2497.17 1191.42 2497.17 1123.3C2497.17 1055.18 2520.83 996.94 2568.15 948.58C2615.47 900.22 2672.67 876.04 2739.75 876.04C2791.23 876.04 2838.03 891.12 2880.15 921.28L2898.09 876.04H2982.33V1371.34ZM2739.75 1253.56C2774.07 1253.56 2803.45 1240.82 2827.89 1215.34C2852.33 1189.86 2864.55 1159.18 2864.55 1123.3C2864.55 1087.42 2852.33 1057 2827.89 1032.04C2803.45 1006.56 2774.07 993.82 2739.75 993.82C2705.43 993.82 2676.05 1006.56 2651.61 1032.04C2627.17 1057 2614.95 1087.42 2614.95 1123.3C2614.95 1159.18 2627.17 1189.86 2651.61 1215.34C2676.05 1240.82 2705.43 1253.56 2739.75 1253.56ZM3272.14 1369C3205.58 1369 3148.9 1345.08 3102.1 1297.24C3055.3 1248.88 3031.9 1190.9 3031.9 1123.3C3031.9 1055.7 3055.3 997.98 3102.1 950.14C3148.9 902.3 3205.58 878.38 3272.14 878.38C3339.22 878.38 3398.24 904.64 3449.2 957.16L3364.96 1032.82C3338.44 1005.26 3307.5 991.48 3272.14 991.48C3236.78 991.48 3206.62 1004.48 3181.66 1030.48C3157.22 1055.96 3145 1086.9 3145 1123.3C3145 1159.7 3157.22 1190.9 3181.66 1216.9C3206.62 1242.38 3236.78 1255.12 3272.14 1255.12C3295.54 1255.12 3317.12 1249.14 3336.88 1237.18C3357.16 1224.7 3373.02 1207.54 3384.46 1185.7L3485.08 1237.18C3463.76 1278.26 3434.12 1310.5 3396.16 1333.9C3358.2 1357.3 3316.86 1369 3272.14 1369ZM3815.33 1375.24V1092.88C3815.33 1067.4 3810.91 1045.56 3802.07 1027.36C3793.23 1008.64 3776.07 999.28 3750.59 999.28C3724.07 999.28 3701.19 1008.64 3681.95 1027.36C3663.23 1045.56 3651.01 1067.92 3645.29 1094.44L3647.63 1368.22L3525.17 1365.1V801.94H3642.95L3644.51 940C3671.55 904.12 3710.81 886.18 3762.29 886.18C3814.29 886.18 3855.37 904.38 3885.53 940.78C3915.69 977.18 3931.03 1022.16 3931.55 1075.72V1372.12L3815.33 1375.24ZM4215.14 1369C4148.58 1369 4091.9 1345.08 4045.1 1297.24C3998.3 1248.88 3974.9 1190.9 3974.9 1123.3C3974.9 1055.7 3998.3 997.98 4045.1 950.14C4091.9 902.3 4148.58 878.38 4215.14 878.38C4271.3 878.9 4321.22 896.84 4364.9 932.2C4407.54 967.56 4435.36 1012.02 4448.36 1065.58C4453.56 1084.82 4456.16 1104.06 4456.16 1123.3L4109.06 1196.62C4135.58 1235.62 4170.94 1255.12 4215.14 1255.12C4238.54 1255.12 4260.12 1249.14 4279.88 1237.18C4300.16 1224.7 4316.02 1207.54 4327.46 1185.7L4428.08 1237.18C4406.76 1278.26 4377.12 1310.5 4339.16 1333.9C4301.2 1357.3 4259.86 1369 4215.14 1369ZM4091.9 1094.44L4318.1 1046.86C4306.14 1029.7 4290.8 1016.18 4272.08 1006.3C4253.36 996.42 4234.38 991.48 4215.14 991.48C4186.54 991.48 4160.02 1001.36 4135.58 1021.12C4111.66 1040.36 4097.1 1064.8 4091.9 1094.44Z" fill="#0D59B8"/>
</g>
<defs>
<linearGradient id="paint0_linear_30_13" x1="241.708" y1="676.586" x2="344.825" y2="861.676" gradientUnits="userSpaceOnUse">
<stop stop-color="#E1FFBB"/>
<stop offset="1" stop-color="#879970"/>
</linearGradient>
<clipPath id="clip0_30_13">
<rect width="4869" height="1510" fill="white"/>
</clipPath>
</defs>
</svg>
