<svg width="4869" height="1510" viewBox="0 0 4869 1510" fill="none" xmlns="http://www.w3.org/2000/svg">
<g clip-path="url(#clip0_30_13)">
<rect x="7.27505" y="0.625679" width="1070.37" height="568.371" rx="20" transform="matrix(0.78605 -0.618162 0.668961 0.743298 185.183 747.371)" fill="#009990" stroke="#EDEDED" stroke-width="10"/>
<rect x="167.058" y="757.234" width="1207.24" height="753.557" rx="45" transform="rotate(-28.38 167.058 757.234)" fill="#125DBB" stroke="#EDEDED" stroke-width="10"/>
<path d="M604.721 1317.75L1474.29 846.297" stroke="#DFC4C4" stroke-opacity="0.9" stroke-width="10" stroke-linecap="round" stroke-dasharray="20 20"/>
<path d="M300.001 757.869L1170.24 287.726" stroke="#E0C8C8" stroke-width="10" stroke-linecap="round" stroke-dasharray="20 20"/>
<path d="M1202.94 344.084L1443.5 789.354" stroke="#DFC4C4" stroke-opacity="0.9" stroke-width="10" stroke-linecap="round" stroke-dasharray="20 20"/>
<path d="M1239.7 716.63C1160.15 722.444 1118.17 653.755 1161.29 573.269C1162.62 570.785 1164.7 568.748 1167.18 567.408L1415.25 433.393C1422.53 429.455 1431.64 432.172 1435.57 439.46L1500.68 559.979C1504.62 567.268 1501.9 576.368 1494.62 580.306L1245.43 714.927C1243.67 715.88 1241.7 716.484 1239.7 716.63Z" fill="#009990" stroke="#EDEDED" stroke-width="10"/>
<path d="M1288.31 599.005C1297.44 615.909 1287.7 641.124 1262.96 654.492C1238.21 667.859 1211.79 662.182 1202.65 645.278C1193.52 628.375 1203.26 603.159 1228 589.792C1252.75 576.425 1279.17 582.102 1288.31 599.005Z" fill="#EDEDED" stroke="#EDEDED" stroke-width="10"/>
<path d="M249.177 722.578L361.799 659.96L452.83 821.828L363.11 791.61L340.207 884.446L249.177 722.578Z" fill="url(#paint0_linear_30_13)"/>
<path d="M1945.84 756.6C1892.56 756.6 1843.84 743.4 1799.68 717C1756 690.12 1720.96 654.12 1694.56 609C1668.64 563.88 1655.68 514.2 1655.68 459.96C1655.68 405.24 1668.64 355.56 1694.56 310.92C1720.96 265.8 1756 229.8 1799.68 202.92C1843.84 176.04 1892.56 162.6 1945.84 162.6C1997.2 163.08 2045.44 176.28 2090.56 202.2L2035.12 295.8C2007.28 279.96 1977.52 271.8 1945.84 271.32C1895.92 271.32 1853.2 289.8 1817.68 326.76C1782.16 363.72 1764.4 408.12 1764.4 459.96C1764.4 511.8 1782.16 556.2 1817.68 593.16C1853.2 629.64 1895.92 647.88 1945.84 647.88C1978 647.88 2008 639.48 2035.84 622.68C2064.16 605.88 2086.48 582.84 2102.8 553.56L2197.84 606.84C2171.44 653.4 2135.68 690.12 2090.56 717C2045.92 743.4 1997.68 756.6 1945.84 756.6ZM2334.37 683.16H2221.33L2229.97 161.88L2334.37 157.56V683.16ZM2828.46 683.16H2750.7L2735.58 639.24C2696.7 668.04 2653.02 682.68 2604.54 683.16C2542.62 683.16 2489.82 660.84 2446.14 616.2C2402.46 571.08 2380.62 517.08 2380.62 454.2C2380.62 391.32 2402.46 337.56 2446.14 292.92C2489.82 248.28 2542.62 225.96 2604.54 225.96C2652.06 225.96 2695.26 239.88 2734.14 267.72L2750.7 225.96H2828.46V683.16ZM2604.54 574.44C2636.22 574.44 2663.34 562.68 2685.9 539.16C2708.46 515.64 2719.74 487.32 2719.74 454.2C2719.74 421.08 2708.46 393 2685.9 369.96C2663.34 346.44 2636.22 334.68 2604.54 334.68C2572.86 334.68 2545.74 346.44 2523.18 369.96C2500.62 393 2489.34 421.08 2489.34 454.2C2489.34 487.32 2500.62 515.64 2523.18 539.16C2545.74 562.68 2572.86 574.44 2604.54 574.44ZM3040.53 696.84H3029.01C2998.29 696.84 2969.25 690.36 2941.89 677.4C2915.01 664.44 2892.45 646.44 2874.21 623.4V622.68L2962.05 555.72V556.44C2978.37 576.6 3000.93 586.68 3029.73 586.68H3034.05C3062.85 584.28 3080.37 575.16 3086.61 559.32C3088.05 555.96 3088.77 551.88 3088.77 547.08C3088.29 542.28 3085.89 537.72 3081.57 533.4C3073.41 524.28 3053.97 514.44 3023.25 503.88L2993.01 490.92C2969.01 480.84 2946.69 467.64 2926.05 451.32C2894.85 423.48 2879.25 392.52 2879.25 358.44C2879.25 344.52 2881.89 330.12 2887.17 315.24C2898.21 286.92 2918.37 263.88 2947.65 246.12C2975.49 230.28 3003.81 222.36 3032.61 222.36C3088.77 222.36 3137.49 243.48 3178.77 285.72H3179.49L3098.85 361.32C3079.65 342.12 3057.33 332.52 3031.89 332.52C3021.81 333.48 3012.45 336.6 3003.81 341.88C2995.17 347.16 2990.85 351.96 2990.85 356.28C2990.85 360.12 2993.01 363.48 2997.33 366.36C3019.89 383.16 3044.61 395.88 3071.49 404.52C3081.57 408.36 3091.41 412.44 3101.01 416.76C3124.05 426.36 3144.45 439.8 3162.21 457.08C3186.69 484.44 3198.93 515.4 3198.93 549.96C3198.93 578.76 3189.81 606.12 3171.57 632.04C3142.29 670.92 3098.61 692.52 3040.53 696.84ZM3394.2 696.84H3382.68C3351.96 696.84 3322.92 690.36 3295.56 677.4C3268.68 664.44 3246.12 646.44 3227.88 623.4V622.68L3315.72 555.72V556.44C3332.04 576.6 3354.6 586.68 3383.4 586.68H3387.72C3416.52 584.28 3434.04 575.16 3440.28 559.32C3441.72 555.96 3442.44 551.88 3442.44 547.08C3441.96 542.28 3439.56 537.72 3435.24 533.4C3427.08 524.28 3407.64 514.44 3376.92 503.88L3346.68 490.92C3322.68 480.84 3300.36 467.64 3279.72 451.32C3248.52 423.48 3232.92 392.52 3232.92 358.44C3232.92 344.52 3235.56 330.12 3240.84 315.24C3251.88 286.92 3272.04 263.88 3301.32 246.12C3329.16 230.28 3357.48 222.36 3386.28 222.36C3442.44 222.36 3491.16 243.48 3532.44 285.72H3533.16L3452.52 361.32C3433.32 342.12 3411 332.52 3385.56 332.52C3375.48 333.48 3366.12 336.6 3357.48 341.88C3348.84 347.16 3344.52 351.96 3344.52 356.28C3344.52 360.12 3346.68 363.48 3351 366.36C3373.56 383.16 3398.28 395.88 3425.16 404.52C3435.24 408.36 3445.08 412.44 3454.68 416.76C3477.72 426.36 3498.12 439.8 3515.88 457.08C3540.36 484.44 3552.6 515.4 3552.6 549.96C3552.6 578.76 3543.48 606.12 3525.24 632.04C3495.96 670.92 3452.28 692.52 3394.2 696.84Z" fill="#009990"/>
<path d="M2208.5 1379.75C2153 1379.75 2102.25 1366 2056.25 1338.5C2010.75 1310.5 1974.25 1273 1946.75 1226C1919.75 1179 1906.25 1127.25 1906.25 1070.75C1906.25 1013.75 1919.75 962 1946.75 915.5C1974.25 868.5 2010.75 831 2056.25 803C2102.25 775 2153 761 2208.5 761C2262 761.5 2312.25 775.25 2359.25 802.25L2301.5 899.75C2272.5 883.25 2241.5 874.75 2208.5 874.25C2156.5 874.25 2112 893.5 2075 932C2038 970.5 2019.5 1016.75 2019.5 1070.75C2019.5 1124.75 2038 1171 2075 1209.5C2112 1247.5 2156.5 1266.5 2208.5 1266.5C2242 1266.5 2273.25 1257.75 2302.25 1240.25C2331.75 1222.75 2355 1198.75 2372 1168.25L2471 1223.75C2443.5 1272.25 2406.25 1310.5 2359.25 1338.5C2312.75 1366 2262.5 1379.75 2208.5 1379.75ZM2940.39 1303.25H2859.39L2843.64 1257.5C2803.14 1287.5 2757.64 1302.75 2707.14 1303.25C2642.64 1303.25 2587.64 1280 2542.14 1233.5C2496.64 1186.5 2473.89 1130.25 2473.89 1064.75C2473.89 999.25 2496.64 943.25 2542.14 896.75C2587.64 850.25 2642.64 827 2707.14 827C2756.64 827 2801.64 841.5 2842.14 870.5L2859.39 827H2940.39V1303.25ZM2707.14 1190C2740.14 1190 2768.39 1177.75 2791.89 1153.25C2815.39 1128.75 2827.14 1099.25 2827.14 1064.75C2827.14 1030.25 2815.39 1001 2791.89 977C2768.39 952.5 2740.14 940.25 2707.14 940.25C2674.14 940.25 2645.89 952.5 2622.39 977C2598.89 1001 2587.14 1030.25 2587.14 1064.75C2587.14 1099.25 2598.89 1128.75 2622.39 1153.25C2645.89 1177.75 2674.14 1190 2707.14 1190ZM3219.05 1301C3155.05 1301 3100.55 1278 3055.55 1232C3010.55 1185.5 2988.05 1129.75 2988.05 1064.75C2988.05 999.75 3010.55 944.25 3055.55 898.25C3100.55 852.25 3155.05 829.25 3219.05 829.25C3283.55 829.25 3340.3 854.5 3389.3 905L3308.3 977.75C3282.8 951.25 3253.05 938 3219.05 938C3185.05 938 3156.05 950.5 3132.05 975.5C3108.55 1000 3096.8 1029.75 3096.8 1064.75C3096.8 1099.75 3108.55 1129.75 3132.05 1154.75C3156.05 1179.25 3185.05 1191.5 3219.05 1191.5C3241.55 1191.5 3262.3 1185.75 3281.3 1174.25C3300.8 1162.25 3316.05 1145.75 3327.05 1124.75L3423.8 1174.25C3403.3 1213.75 3374.8 1244.75 3338.3 1267.25C3301.8 1289.75 3262.05 1301 3219.05 1301ZM3741.35 1307V1035.5C3741.35 1011 3737.1 990 3728.6 972.5C3720.1 954.5 3703.6 945.5 3679.1 945.5C3653.6 945.5 3631.6 954.5 3613.1 972.5C3595.1 990 3583.35 1011.5 3577.85 1037L3580.1 1300.25L3462.35 1297.25V755.75H3575.6L3577.1 888.5C3603.1 854 3640.85 836.75 3690.35 836.75C3740.35 836.75 3779.85 854.25 3808.85 889.25C3837.85 924.25 3852.6 967.5 3853.1 1019V1304L3741.35 1307ZM4125.79 1301C4061.79 1301 4007.29 1278 3962.29 1232C3917.29 1185.5 3894.79 1129.75 3894.79 1064.75C3894.79 999.75 3917.29 944.25 3962.29 898.25C4007.29 852.25 4061.79 829.25 4125.79 829.25C4179.79 829.75 4227.79 847 4269.79 881C4310.79 915 4337.54 957.75 4350.04 1009.25C4355.04 1027.75 4357.54 1046.25 4357.54 1064.75L4023.79 1135.25C4049.29 1172.75 4083.29 1191.5 4125.79 1191.5C4148.29 1191.5 4169.04 1185.75 4188.04 1174.25C4207.54 1162.25 4222.79 1145.75 4233.79 1124.75L4330.54 1174.25C4310.04 1213.75 4281.54 1244.75 4245.04 1267.25C4208.54 1289.75 4168.79 1301 4125.79 1301ZM4007.29 1037L4224.79 991.25C4213.29 974.75 4198.54 961.75 4180.54 952.25C4162.54 942.75 4144.29 938 4125.79 938C4098.29 938 4072.79 947.5 4049.29 966.5C4026.29 985 4012.29 1008.5 4007.29 1037Z" fill="#0D59B8"/>
</g>
<defs>
<linearGradient id="paint0_linear_30_13" x1="305.488" y1="691.269" x2="395.73" y2="853.575" gradientUnits="userSpaceOnUse">
<stop stop-color="#E1FFBB"/>
<stop offset="1" stop-color="#879970"/>
</linearGradient>
<clipPath id="clip0_30_13">
<rect width="4869" height="1510" fill="white"/>
</clipPath>
</defs>
</svg>
